<svg xmlns="http://www.w3.org/2000/svg" viewBox="0 0 247.65 63.67"><defs><style>.cls-1{fill:#fff;}</style></defs><title>emenu_white</title><g id="Layer_2" data-name="Layer 2"><g id="Layer_1-2" data-name="Layer 1"><path class="cls-1" d="M16.1,5.06H42.65a30.37,30.37,0,0,1,7.65.85,31.85,31.85,0,0,0-35.69-.85Z"/><path class="cls-1" d="M32.66,58.61,28,42.36,24.53,58.61H14.61a31.85,31.85,0,0,0,34.44,0Z"/><path class="cls-1" d="M63.67,31.83A31.67,31.67,0,0,0,58.83,15a14.33,14.33,0,0,1,.08,1.47,24.68,24.68,0,0,1-.71,5.5,19.7,19.7,0,0,1-4.62,9.27,17.5,17.5,0,0,1-8.26,5.3l6.13,12.88v-.14h6.9l-.09.34a31.69,31.69,0,0,0,5.41-17.75"/><path class="cls-1" d="M9.65,35.54c9.65-1.36,17.9-4.34,24.62-8.9l2.46,9.12L46.2,12.92,23.44,22.58,32.62,25c-6.17,4.1-13.69,6.82-22.47,8.16l4-18.72H12.23L10.57,8.15A31.83,31.83,0,0,0,6.38,51Z"/><path class="cls-1" d="M78.12,36.23V45H98.63V53.8H75.19q-5.86,0-5.86-5.86V15.72q0-5.86,5.86-5.86H98.63v8.79H78.12v8.79H89.84l-2.93,8.79Z"/><path class="cls-1" d="M119.61,32.71H109V53.81h-7.91V30.07q0-5.27,5.27-5.27h34.28q5.27,0,5.27,5.27V53.81H138l0-21.09H127.52V53.81h-7.91Z"/><path class="cls-1" d="M179.84,30.07V38q0,5.28-5.27,5.27H158.75V35.35h13.18V32.71H156.11V45.89h18.43L172,53.8H153.48q-5.27,0-5.27-5.27V30.07q0-5.27,5.27-5.27h21.09q5.27,0,5.27,5.27"/><path class="cls-1" d="M182.09,53.81V30.08q0-5.27,5.27-5.27h21.12q5.27,0,5.27,5.27V53.81h-7.91l0-21.09H190V53.81Z"/><path class="cls-1" d="M223.89,24.8V45.9h15.82l0-21.09h7.91V48.53q0,5.28-5.27,5.27H221.26q-5.27,0-5.27-5.27V24.8Z"/></g></g></svg>