<svg xmlns="http://www.w3.org/2000/svg" viewBox="0 0 97.62 97.62"><defs><style>.cls-1{fill:none;}.cls-2{fill:#27ade3;}</style></defs><title>ReliposEmenu</title><g id="Layer_2" data-name="Layer 2"><g id="Layer_1-2" data-name="Layer 1"><rect class="cls-1" width="97.62" height="97.62"/><path class="cls-2" d="M31.62,8.84h29A33.21,33.21,0,0,1,69,9.76a34.81,34.81,0,0,0-39-.93Z"/><path class="cls-2" d="M49.71,67.36,44.63,49.6,40.83,67.36H30a34.81,34.81,0,0,0,37.64,0Z"/><path class="cls-2" d="M83.6,38.1a34.62,34.62,0,0,0-5.28-18.43,15.69,15.69,0,0,1,.08,1.61,27,27,0,0,1-.78,6,21.52,21.52,0,0,1-5.05,10.13,19.12,19.12,0,0,1-9,5.79l6.7,14.07v-.16h7.54l-.1.37A34.63,34.63,0,0,0,83.6,38.1"/><path class="cls-2" d="M24.56,42.15c10.55-1.49,19.56-4.75,26.9-9.73l2.68,10,10.37-25L39.64,28l10,2.62c-6.74,4.48-15,7.46-24.56,8.92l4.33-20.46H27.39l-1.82-6.86A34.79,34.79,0,0,0,21,59Z"/><path class="cls-2" d="M17.45,87.45v3.43h8v3.43H16.3A2,2,0,0,1,14,92V79.45a2,2,0,0,1,2.29-2.29h9.15v3.43h-8V84H22l-1.14,3.43Z"/><path class="cls-2" d="M33.64,86.08H29.51v8.23H26.43V85A1.82,1.82,0,0,1,28.48,83H41.86A1.82,1.82,0,0,1,43.92,85v9.26H40.83V86.08H36.73v8.23H33.64Z"/><path class="cls-2" d="M57.14,85v3.09a1.82,1.82,0,0,1-2.06,2.06H48.91V87.11h5.14v-1H47.88v5.14h7.19l-1,3.09H46.85a1.82,1.82,0,0,1-2.06-2.06V85A1.82,1.82,0,0,1,46.85,83h8.23A1.82,1.82,0,0,1,57.14,85"/><path class="cls-2" d="M58,94.31V85A1.82,1.82,0,0,1,60.08,83h8.24A1.82,1.82,0,0,1,70.38,85v9.26H67.29V86.08H61.11v8.23Z"/><path class="cls-2" d="M74.33,83v8.23H80.5V83H83.6v9.26a1.82,1.82,0,0,1-2.06,2.06H73.3a1.82,1.82,0,0,1-2.06-2.06V83Z"/></g></g></svg>