<svg xmlns="http://www.w3.org/2000/svg" viewBox="0 0 119.43 131.85"><defs><style>.cls-1{fill:#27ade3;}.cls-2{fill:none;}</style></defs><title>ReliposEmenuPadding</title><g id="Layer_2" data-name="Layer 2"><g id="Layer_1-2" data-name="Layer 1"><path class="cls-1" d="M46.41,35H68.87a25.7,25.7,0,0,1,6.47.72A26.93,26.93,0,0,0,45.15,35Z"/><path class="cls-1" d="M60.41,80.29,56.48,66.54,53.54,80.29H45.15a26.94,26.94,0,0,0,29.13,0Z"/><path class="cls-1" d="M86.64,57.64a26.79,26.79,0,0,0-4.09-14.26,12.14,12.14,0,0,1,.06,1.25,20.86,20.86,0,0,1-.6,4.66,16.65,16.65,0,0,1-3.91,7.84,14.8,14.8,0,0,1-7,4.48L76.3,72.49v-.12h5.84l-.08.28a26.8,26.8,0,0,0,4.57-15"/><path class="cls-1" d="M40.95,60.78c8.17-1.15,15.14-3.67,20.82-7.53L63.85,61l8-19.31L52.62,49.81l7.77,2a46.63,46.63,0,0,1-19,6.9l3.35-15.83h-1.6l-1.41-5.3a26.92,26.92,0,0,0-3.54,36.2Z"/><path class="cls-1" d="M35.45,95.83v2.65h6.19v2.65H34.56a1.56,1.56,0,0,1-1.77-1.77V89.64a1.56,1.56,0,0,1,1.77-1.77h7.08v2.65H35.45v2.65H39l-.88,2.65Z"/><path class="cls-1" d="M48,94.77H44.78v6.37H42.39V94A1.41,1.41,0,0,1,44,92.38H54.34A1.41,1.41,0,0,1,55.93,94v7.17H53.54V94.77H50.36v6.37H48Z"/><path class="cls-1" d="M66.16,94v2.39A1.41,1.41,0,0,1,64.57,98H59.79V95.56h4v-.8H59v4h5.57l-.78,2.39H58.2a1.41,1.41,0,0,1-1.59-1.59V94a1.41,1.41,0,0,1,1.59-1.59h6.37A1.41,1.41,0,0,1,66.16,94"/><path class="cls-1" d="M66.84,101.14V94a1.41,1.41,0,0,1,1.59-1.59h6.38A1.41,1.41,0,0,1,76.4,94v7.17H74V94.77H69.23v6.37Z"/><path class="cls-1" d="M79.46,92.38v6.37h4.78V92.38h2.39v7.17A1.41,1.41,0,0,1,85,101.14H78.67a1.41,1.41,0,0,1-1.59-1.59V92.38Z"/><rect class="cls-2" width="119.43" height="131.85"/></g></g></svg>